<svg width="32" height="265" viewBox="0 0 32 265" fill="none" xmlns="http://www.w3.org/2000/svg">
<path d="M31.1174 0C29.9073 0.146977 28.6396 0.293955 27.4294 0.367443C26.2193 0.51442 24.9516 0.734886 23.7991 1.17582C22.5889 1.61675 21.4364 2.13117 20.3416 2.93955C19.2467 3.74792 18.2671 4.70327 17.4027 5.8056C15.674 8.08375 14.5215 10.9498 13.8876 13.9628C13.1961 16.9759 12.6198 20.0624 12.2165 23.2224C11.7555 26.3089 11.4097 29.4689 11.2368 32.629C11.064 35.789 11.064 38.949 11.064 42.109C11.1216 48.429 11.3521 54.749 11.5826 61.069C12.1012 73.7091 12.5046 86.4226 11.986 99.0627C11.8707 102.223 11.6978 105.383 11.4097 108.543C11.064 111.703 10.603 114.863 9.7386 117.876C8.87423 120.889 7.77936 123.755 6.22348 126.327C4.66761 128.899 2.82362 131.03 0.691498 132.867V132.28C2.76599 134.043 4.60999 136.321 6.16586 138.82C7.72173 141.392 8.87423 144.185 9.7386 147.198C10.603 150.211 11.1216 153.371 11.4097 156.531C11.7555 159.691 11.8131 162.851 11.8707 166.011C11.986 172.331 11.986 178.724 11.8707 185.044C11.7555 191.364 11.5826 197.684 11.4097 204.078C11.1792 210.398 10.8911 216.718 10.8911 223.038C10.8335 229.358 11.1216 235.678 11.8707 241.925C12.2741 245.011 12.7927 248.171 13.6571 251.111C13.8876 251.846 14.1181 252.58 14.3486 253.315C14.6367 254.05 14.8672 254.712 15.213 255.373C15.7892 256.769 16.596 258.019 17.4027 259.121C19.1315 261.399 21.3788 262.942 23.7414 263.824C24.3177 264.045 24.9516 264.265 25.5278 264.339C26.1617 264.486 26.7379 264.559 27.3718 264.706C28.5819 264.853 29.8497 264.927 31.0598 265.073C29.8497 264.927 28.5819 264.926 27.3142 264.78C26.6803 264.706 26.1041 264.633 25.4702 264.486C24.8363 264.339 24.2601 264.192 23.6262 263.971C21.2059 263.163 18.9586 261.62 17.2298 259.341C16.3655 258.166 15.5587 256.916 14.9825 255.593C14.6367 254.932 14.4062 254.197 14.1181 253.462C13.8876 252.727 13.5995 251.993 13.369 251.258C12.447 248.318 11.9283 245.158 11.4673 242.072C10.6606 235.825 10.4301 229.432 10.4301 223.111C10.4301 216.791 10.7182 210.471 10.9487 204.078C11.1216 197.758 11.2368 191.438 11.3521 185.118C11.4673 178.798 11.4673 172.478 11.3521 166.158C11.2945 162.998 11.1792 159.838 10.8335 156.678C10.4877 153.591 9.9691 150.431 9.16235 147.492C8.29798 144.552 7.14548 141.76 5.64724 139.261C4.14899 136.762 2.30499 134.631 0.288124 132.867L0 132.5L0.345749 132.206C2.42024 130.516 4.20661 128.385 5.70486 125.886C7.20311 123.461 8.3556 120.595 9.16235 117.655C9.9691 114.716 10.4877 111.629 10.8335 108.469C11.1216 105.383 11.2945 102.149 11.4673 99.0627C11.986 86.4226 11.5826 73.7826 11.1216 61.1425C10.8911 54.8225 10.7182 48.5025 10.6606 42.109C10.6606 38.949 10.6606 35.789 10.8911 32.629C11.1216 29.4689 11.4673 26.3089 11.9283 23.2224C12.3893 20.1359 13.0232 17.0494 13.7147 13.9628C14.4062 10.8763 15.5587 8.01026 17.3451 5.73211C18.2095 4.62978 19.2467 3.67443 20.3416 2.86606C21.4364 2.05768 22.5889 1.54326 23.7991 1.10233C25.0092 0.661398 26.2193 0.440932 27.4871 0.367443C28.6396 0.220466 29.9073 0.0734886 31.1174 0Z" fill="#494949"/>
</svg>
