<svg width="84" height="16" viewBox="0 0 84 16" fill="none" xmlns="http://www.w3.org/2000/svg">
<path d="M82.8837 3.04618C83.4105 3.21207 83.703 3.7736 83.5372 4.30038L80.8338 12.8848C80.6679 13.4116 80.1064 13.7041 79.5796 13.5382C79.0529 13.3723 78.7603 12.8108 78.9262 12.284L81.3291 4.65346L73.6986 2.2505C73.1718 2.08461 72.8792 1.52309 73.0451 0.996307C73.211 0.469525 73.7725 0.176964 74.2993 0.342854L82.8837 3.04618ZM1.59331 3.19502C12.5799 11.2926 44.2562 22.8414 82.1213 3.11316L83.0454 4.88685C44.4364 25.0027 11.9448 13.3091 0.406696 4.80498L1.59331 3.19502Z" fill="white"/>
</svg>
