<svg width="91" height="17" viewBox="0 0 91 17" fill="none" xmlns="http://www.w3.org/2000/svg">
<path d="M90.3004 13.9538C90.8271 13.7879 91.1197 13.2264 90.9538 12.6996L88.2505 4.11523C88.0846 3.58844 87.5231 3.29588 86.9963 3.46177C86.4695 3.62766 86.177 4.18918 86.3428 4.71596L88.7458 12.3465L81.1152 14.7495C80.5884 14.9154 80.2959 15.4769 80.4618 16.0037C80.6277 16.5305 81.1892 16.823 81.716 16.6572L90.3004 13.9538ZM1.5933 13.805C13.6037 4.95275 48.1968 -7.65249 89.5379 13.8868L90.4621 12.1132C48.3769 -9.81382 12.9687 2.93629 0.406695 12.195L1.5933 13.805Z" fill="white"/>
</svg>
