<svg width="70" height="70" viewBox="0 0 70 70" fill="none" xmlns="http://www.w3.org/2000/svg">
<g clip-path="url(#clip0_376_2273)">
<path d="M68.0402 42.4726C66.8502 40.5651 65.1527 39.305 62.8602 38.9726C61.8977 38.8326 61.0402 38.9201 60.2527 39.6376C59.7277 40.1101 59.0627 40.4951 58.3977 40.7575C56.0352 41.685 53.9177 41.1425 51.9577 39.6201C51.5552 39.305 51.0127 39.1651 50.5402 38.9376C50.2602 38.7976 49.8927 38.6926 49.7177 38.4475C48.3527 36.6625 46.7077 35.3151 44.4852 34.7726C42.9977 34.4226 41.6152 34.3876 40.2852 35.5426C38.3952 37.1701 36.1202 37.8001 33.6002 37.3801C31.9202 37.1001 30.4677 36.2776 29.1902 35.1926C28.6652 34.7376 28.1052 34.545 27.4052 34.545C24.4827 34.5625 22.2602 35.9101 20.5102 38.1501C20.1427 38.6226 19.8102 39.0076 19.1102 38.9726C18.8127 38.9551 18.4802 39.2526 18.2002 39.4276C17.5002 39.8476 16.8702 40.4076 16.1177 40.7051C13.7202 41.6851 11.5327 41.16 9.57273 39.5326C9.01273 39.06 8.41773 38.8676 7.70023 38.9026C6.17773 38.9726 4.77773 39.4451 3.65773 40.4776C0.542727 43.3826 -0.559773 47.0051 0.262727 51.1351C0.945227 54.6001 3.41273 56.4551 6.93023 56.4551C11.5502 56.4551 16.1527 56.4901 20.7727 56.4375C22.3127 56.4201 23.8527 56.385 25.4102 56.4025C31.7977 56.525 38.2027 56.5075 44.5902 56.4025C46.1127 56.385 47.6352 56.3675 49.1577 56.4201C51.5027 56.4901 53.8477 56.4375 56.1752 56.4375C58.5727 56.4375 60.9527 56.4375 63.3502 56.4375C66.2027 56.4375 68.5302 54.8275 69.4402 52.115C70.5777 48.685 69.9127 45.465 68.0402 42.4726ZM8.41773 53.8476C8.41773 52.3951 8.41773 50.9601 8.41773 49.5426C8.41773 49.3326 8.43523 49.1226 8.40023 48.9126C8.29523 48.23 7.71773 47.775 7.07023 47.8275C6.40523 47.8801 5.91523 48.3701 5.91523 49.0876C5.89773 50.4001 5.91523 51.7126 5.89773 53.0251C5.89773 53.2701 5.89773 53.5326 5.89773 53.8476C4.41023 53.5676 3.46523 52.745 2.97523 51.4325C2.27523 49.6301 2.45023 47.7925 3.02773 45.99C3.41273 44.7475 4.00773 43.5926 5.00523 42.7176C5.44273 42.3151 5.98523 41.9826 6.52773 41.7376C7.24523 41.3876 7.91023 41.4226 8.66273 41.9651C11.6377 44.1351 14.8227 44.2926 18.2177 42.5776C17.2202 46.5501 17.1327 50.3476 19.7227 53.8476H8.41773ZM49.5602 49.875C48.9827 52.2551 47.1452 53.7426 44.8702 53.8476C44.8702 53.6026 44.8702 53.3576 44.8702 53.0951C44.8702 51.2925 44.8702 49.4901 44.8702 47.6875C44.8702 46.5851 44.4327 46.0426 43.5927 46.0426C42.7702 46.0601 42.3502 46.6201 42.3327 47.7226C42.3327 49.5076 42.3327 51.2751 42.3327 53.0601V53.8476H27.6502V53.0775C27.6502 51.2575 27.6677 49.4201 27.6327 47.6001C27.6327 47.1976 27.5277 46.6726 27.2652 46.4626C26.9327 46.2001 26.3727 46.0601 25.9527 46.1301C25.4102 46.2176 25.1302 46.7076 25.1302 47.2851C25.1302 49.2101 25.1302 51.1176 25.1302 53.0426C25.1302 53.2876 25.1302 53.55 25.1302 53.865C23.2227 53.655 21.8402 52.78 20.9652 51.1701C19.9327 49.245 19.8802 47.1801 20.2302 45.0801C20.6152 42.7001 21.5077 40.5301 23.2927 38.8326C23.9052 38.2551 24.6752 37.7826 25.4452 37.4151C26.4777 36.9251 27.4227 36.9601 28.4727 37.7476C32.6552 40.8626 37.6952 40.7576 41.8427 37.5376C42.4377 37.0826 42.9802 37.0126 43.6627 37.1526C44.9577 37.4151 46.0427 38.045 46.8827 39.0075C49.6477 42.1751 50.5402 45.8326 49.5602 49.875ZM67.1302 51.0826C66.7277 52.6576 65.5027 53.6726 64.0852 53.7775C64.0852 52.255 64.0852 50.7325 64.0852 49.2276C64.0852 48.6325 63.8752 48.1776 63.3152 47.9325C62.4402 47.565 61.5827 48.1776 61.5652 49.1926C61.5477 50.4876 61.5652 51.7651 61.5652 53.0601C61.5652 53.3226 61.5652 53.5675 61.5652 53.865H50.3127C52.9027 50.365 52.8502 46.5676 51.8177 42.5601C53.1652 43.2425 54.4427 43.6626 55.8602 43.7151C58.0302 43.7851 59.9027 43.1026 61.6002 41.8076C62.0202 41.4925 62.4227 41.3351 62.8777 41.5626C63.5952 41.9126 64.4527 42.1751 64.9777 42.7351C67.2352 45.0976 67.9352 47.9325 67.1302 51.0826ZM34.9827 33.0401C40.4077 33.0576 44.8002 28.7001 44.8002 23.3101C44.8002 17.9376 40.4427 13.5451 35.0877 13.5276C29.6977 13.4926 25.3052 17.8676 25.2702 23.2751C25.2527 28.6476 29.6102 33.0226 34.9827 33.0401ZM35.0352 16.0476C38.9727 16.0126 42.2802 19.3201 42.2802 23.2926C42.2802 27.2826 39.0427 30.5026 35.0352 30.5201C31.0627 30.5375 27.8252 27.3176 27.8077 23.3626C27.8077 19.3201 30.9927 16.1001 35.0352 16.0476ZM13.9127 38.3426C18.2002 38.3251 21.6827 34.7901 21.6652 30.4676C21.6477 26.1451 18.1477 22.6451 13.8427 22.6451C9.52023 22.6451 6.00273 26.1626 6.00273 30.4501C6.02023 34.8426 9.53773 38.3601 13.9127 38.3426ZM13.8777 25.1826C16.7827 25.1826 19.1627 27.5801 19.1627 30.5201C19.1627 33.4601 16.7827 35.8225 13.8427 35.8225C10.9202 35.8225 8.54023 33.4251 8.55773 30.4851C8.55773 27.5451 10.9377 25.1826 13.8777 25.1826ZM56.1752 38.3426C60.4452 38.3776 63.9977 34.8601 64.0502 30.5551C64.0852 26.2676 60.5852 22.6975 56.2977 22.6451C52.0102 22.5926 48.4052 26.0926 48.3527 30.3626C48.3002 34.7376 51.8002 38.3076 56.1752 38.3426ZM56.2102 25.1826C59.0977 25.1826 61.5302 27.6151 61.5127 30.5201C61.4952 33.4426 59.0977 35.8225 56.1752 35.8225C53.2702 35.8225 50.8552 33.3901 50.8727 30.4851C50.8902 27.5451 53.2877 25.1826 56.2102 25.1826Z" fill="#494949"/>
</g>
<defs>
<clipPath id="clip0_376_2273">
<rect width="70" height="70" fill="white"/>
</clipPath>
</defs>
</svg>
