<svg width="56" height="56" viewBox="0 0 56 56" fill="none" xmlns="http://www.w3.org/2000/svg">
<path d="M55.944 48.4118C55.664 46.9278 54.894 45.6538 53.97 44.4918C52.738 42.9378 51.156 41.8458 49.322 41.1038C52.388 37.7998 52.626 33.9778 49.952 31.3458C47.516 28.9518 43.344 28.9238 40.88 31.2898C38.122 33.9218 38.332 37.7298 41.314 40.9778C39.928 41.9158 38.542 42.8678 37.226 43.7498C35.7 42.8818 34.132 41.9858 32.592 41.1038C37.17 37.8838 36.778 32.0878 33.936 28.9518C30.926 25.6198 25.704 25.4658 22.386 28.5738C19.166 31.5978 18.634 37.7578 23.366 41.1178C21.84 41.9858 20.258 42.8958 18.774 43.7498C17.43 42.8398 16.044 41.9018 14.686 40.9778C18.116 38.0378 17.444 33.5438 15.106 31.3038C12.6 28.8818 8.62396 28.8818 6.11796 31.2758C3.84996 33.4318 2.99596 37.8838 6.57996 41.0198C5.79596 41.4958 4.95596 41.9158 4.19996 42.4618C2.40796 43.8198 0.895957 45.4158 0.209957 47.6138C-0.392043 49.5318 0.293957 51.3378 1.94596 52.0658C2.54796 52.3318 3.27596 52.4438 3.94796 52.4578C7.30796 52.4998 10.654 52.4858 14.014 52.4718C14.42 52.4718 14.616 52.5838 14.798 52.9758C15.554 54.6838 16.926 55.5938 18.774 55.6078C24.92 55.6498 31.066 55.6498 37.226 55.6078C39.074 55.5938 40.46 54.6978 41.202 52.9758C41.398 52.5418 41.636 52.4578 42.042 52.4578C45.332 52.4718 48.622 52.4718 51.926 52.4578C52.304 52.4578 52.682 52.4438 53.046 52.3878C54.922 52.1358 56.294 50.2878 55.944 48.4118ZM40.922 35.9518C40.922 33.5298 42.98 31.4998 45.416 31.5278C47.852 31.5558 49.826 33.5438 49.812 35.9658C49.798 38.3878 47.796 40.3618 45.374 40.3618C42.952 40.3618 40.922 38.3458 40.922 35.9518ZM21.91 34.4678C21.882 31.0798 24.528 28.4198 27.972 28.3918C31.416 28.3638 34.048 30.9538 34.076 34.3978C34.104 37.8138 31.5 40.4318 28.042 40.4738C24.598 40.5018 21.938 37.8838 21.91 34.4678ZM6.15996 35.9238C6.17396 33.5298 8.20396 31.5278 10.626 31.5278C13.048 31.5278 15.05 33.5158 15.064 35.9378C15.078 38.3598 13.09 40.3478 10.654 40.3618C8.20396 40.3758 6.13196 38.3318 6.15996 35.9238ZM14.616 50.1338C14.56 50.2878 14.21 50.4418 14 50.4418C11.06 50.4558 8.13396 50.4558 5.19396 50.4558C4.64796 50.4558 4.11596 50.4698 3.56996 50.4558C2.32396 50.4138 1.67996 49.4898 2.11396 48.3138C3.38796 44.8698 5.96396 43.0218 9.51996 42.5318C12.432 42.1258 14.994 42.9798 17.066 45.1358C17.136 45.2058 17.192 45.2898 17.304 45.4298C16.1 46.8438 15.218 48.4118 14.616 50.1338ZM36.89 53.6198C33.936 53.6198 30.968 53.6198 28.014 53.6198C24.99 53.6198 21.966 53.6338 18.942 53.6198C17.038 53.6058 15.974 52.0798 16.716 50.3298C17.164 49.2658 17.71 48.1878 18.41 47.2918C21.308 43.6238 25.13 41.9998 29.75 42.6718C34.258 43.3298 37.422 45.9198 39.214 50.1198C40.054 52.0938 39.004 53.6198 36.89 53.6198ZM52.29 50.4558C50.148 50.4698 48.006 50.4558 45.85 50.4558C44.534 50.4558 43.232 50.4558 41.916 50.4558C41.622 50.4558 41.412 50.4278 41.3 50.0918C40.768 48.3558 39.858 46.8298 38.654 45.4018C40.278 43.5678 42.266 42.6578 44.646 42.4478C48.44 42.1258 52.262 44.3798 53.69 47.8378C53.746 47.9778 53.802 48.1038 53.844 48.2438C54.306 49.5178 53.662 50.4418 52.29 50.4558ZM3.72396 26.2218C4.04596 26.2218 4.39596 26.0538 4.68996 25.8858C9.02996 23.2538 13.468 23.0438 18.018 25.2698C19.334 26.5018 20.594 26.1518 21.98 25.2978C23.646 24.2758 25.536 23.8138 27.524 23.7718C30.282 23.7018 32.844 24.4018 35.168 25.9138C35.7 26.2638 36.162 26.3338 36.722 25.9978C37.198 25.7038 37.716 25.4798 38.22 25.2138C40.824 23.8418 43.568 23.4778 46.466 23.9958C48.3 24.3318 49.966 25.0458 51.534 26.0258C51.814 26.2078 52.36 26.2638 52.612 26.1098C52.892 25.9418 53.046 25.4658 53.158 25.1018C53.242 24.8078 53.172 24.4858 53.172 24.1638C53.186 24.1638 53.214 24.1498 53.228 24.1498C52.962 22.6098 52.78 21.0558 52.416 19.5438C49.168 6.01976 35.168 -2.36624 21.756 1.18976C13.958 3.26176 8.37196 8.04976 4.99796 15.3858C3.58396 18.4518 2.91196 21.6998 2.85596 25.0738C2.84196 25.7458 3.16396 26.2218 3.72396 26.2218ZM51.002 23.3938C48.776 22.3158 46.466 21.7278 44.016 21.7418C41.58 21.7558 39.284 22.3578 37.072 23.4778C36.61 16.3098 36.036 9.22576 32.214 2.86976C41.58 4.29776 50.134 12.7958 51.002 23.3938ZM30.226 3.73776C31.388 5.10976 32.074 6.74776 32.648 8.42776C33.866 11.9978 34.468 15.6938 34.79 19.4318C34.902 20.7338 34.972 22.0498 35.07 23.4638C30.324 21.1678 25.704 21.1678 20.986 23.4498C21.056 22.2878 21.084 21.2378 21.168 20.1878C21.49 15.8898 22.092 11.6478 23.688 7.61576C24.22 6.27176 24.92 4.95576 25.774 3.79376C27.132 1.91776 28.714 1.94576 30.226 3.73776ZM10.598 10.3318C14.126 6.31376 18.536 3.83576 23.856 2.78576C20.72 7.75576 19.824 13.2438 19.25 18.8158C19.096 20.3278 19.026 21.8538 18.914 23.4778C16.702 22.3718 14.406 21.7558 11.97 21.7418C9.53396 21.7278 7.23796 22.2878 4.92796 23.4218C5.47396 18.3818 7.33596 14.0558 10.598 10.3318Z" fill="white"/>
</svg>
