<svg width="56" height="56" viewBox="0 0 56 56" fill="none" xmlns="http://www.w3.org/2000/svg">
<path d="M55.9454 48.4113C55.6654 46.9273 54.8954 45.6533 53.9714 44.4913C52.7394 42.9373 51.1574 41.8453 49.3234 41.1033C52.3894 37.7993 52.6274 33.9773 49.9534 31.3453C47.5174 28.9513 43.3454 28.9233 40.8814 31.2893C38.1234 33.9213 38.3334 37.7293 41.3154 40.9773C39.9294 41.9153 38.5434 42.8673 37.2274 43.7493C35.7014 42.8813 34.1334 41.9853 32.5934 41.1033C37.1714 37.8833 36.7794 32.0873 33.9374 28.9513C30.9274 25.6193 25.7054 25.4653 22.3874 28.5733C19.1674 31.5973 18.6354 37.7573 23.3674 41.1173C21.8414 41.9853 20.2594 42.8953 18.7754 43.7493C17.4314 42.8393 16.0454 41.9013 14.6874 40.9773C18.1174 38.0373 17.4454 33.5433 15.1074 31.3033C12.6014 28.8813 8.62542 28.8813 6.11942 31.2753C3.85142 33.4313 2.99742 37.8833 6.58142 41.0193C5.79742 41.4953 4.95742 41.9153 4.20142 42.4613C2.40942 43.8193 0.897422 45.4153 0.211422 47.6133C-0.390578 49.5313 0.295422 51.3373 1.94742 52.0653C2.54942 52.3313 3.27742 52.4433 3.94942 52.4573C7.30942 52.4993 10.6554 52.4853 14.0154 52.4713C14.4214 52.4713 14.6174 52.5833 14.7994 52.9753C15.5554 54.6833 16.9274 55.5933 18.7754 55.6073C24.9214 55.6493 31.0674 55.6493 37.2274 55.6073C39.0754 55.5933 40.4614 54.6973 41.2034 52.9753C41.3994 52.5413 41.6374 52.4573 42.0434 52.4573C45.3334 52.4713 48.6234 52.4713 51.9274 52.4573C52.3054 52.4573 52.6834 52.4433 53.0474 52.3873C54.9234 52.1353 56.2954 50.2873 55.9454 48.4113ZM40.9234 35.9513C40.9234 33.5293 42.9814 31.4993 45.4174 31.5273C47.8534 31.5553 49.8274 33.5433 49.8134 35.9653C49.7994 38.3873 47.7974 40.3613 45.3754 40.3613C42.9534 40.3613 40.9234 38.3453 40.9234 35.9513ZM21.9114 34.4673C21.8834 31.0793 24.5294 28.4193 27.9734 28.3913C31.4174 28.3633 34.0494 30.9533 34.0774 34.3973C34.1054 37.8133 31.5014 40.4313 28.0434 40.4733C24.5994 40.5013 21.9394 37.8833 21.9114 34.4673ZM6.16142 35.9233C6.17542 33.5293 8.20542 31.5273 10.6274 31.5273C13.0494 31.5273 15.0514 33.5153 15.0654 35.9373C15.0794 38.3593 13.0914 40.3473 10.6554 40.3613C8.20542 40.3753 6.13342 38.3313 6.16142 35.9233ZM14.6174 50.1333C14.5614 50.2873 14.2114 50.4413 14.0014 50.4413C11.0614 50.4553 8.13542 50.4553 5.19542 50.4553C4.64942 50.4553 4.11742 50.4693 3.57142 50.4553C2.32542 50.4133 1.68142 49.4893 2.11542 48.3133C3.38942 44.8693 5.96542 43.0213 9.52142 42.5313C12.4334 42.1253 14.9954 42.9793 17.0674 45.1353C17.1374 45.2053 17.1934 45.2893 17.3054 45.4293C16.1014 46.8433 15.2194 48.4113 14.6174 50.1333ZM36.8914 53.6193C33.9374 53.6193 30.9694 53.6193 28.0154 53.6193C24.9914 53.6193 21.9674 53.6333 18.9434 53.6193C17.0394 53.6053 15.9754 52.0793 16.7174 50.3293C17.1654 49.2653 17.7114 48.1873 18.4114 47.2913C21.3094 43.6233 25.1314 41.9993 29.7514 42.6713C34.2594 43.3293 37.4234 45.9193 39.2154 50.1193C40.0554 52.0933 39.0054 53.6193 36.8914 53.6193ZM52.2914 50.4553C50.1494 50.4693 48.0074 50.4553 45.8514 50.4553C44.5354 50.4553 43.2334 50.4553 41.9174 50.4553C41.6234 50.4553 41.4134 50.4273 41.3014 50.0913C40.7694 48.3553 39.8594 46.8293 38.6554 45.4013C40.2794 43.5673 42.2674 42.6573 44.6474 42.4473C48.4414 42.1253 52.2634 44.3793 53.6914 47.8373C53.7474 47.9773 53.8034 48.1033 53.8454 48.2433C54.3074 49.5173 53.6634 50.4413 52.2914 50.4553ZM3.72542 26.2213C4.04742 26.2213 4.39742 26.0533 4.69142 25.8853C9.03142 23.2533 13.4694 23.0433 18.0194 25.2693C19.3354 26.5013 20.5954 26.1513 21.9814 25.2973C23.6474 24.2753 25.5374 23.8133 27.5254 23.7713C30.2834 23.7013 32.8454 24.4013 35.1694 25.9133C35.7014 26.2633 36.1634 26.3333 36.7234 25.9973C37.1994 25.7033 37.7174 25.4793 38.2214 25.2133C40.8254 23.8413 43.5694 23.4773 46.4674 23.9953C48.3014 24.3313 49.9674 25.0453 51.5354 26.0253C51.8154 26.2073 52.3614 26.2633 52.6134 26.1093C52.8934 25.9413 53.0474 25.4653 53.1594 25.1013C53.2434 24.8073 53.1734 24.4853 53.1734 24.1633C53.1874 24.1633 53.2154 24.1493 53.2294 24.1493C52.9634 22.6093 52.7814 21.0553 52.4174 19.5433C49.1694 6.01927 35.1694 -2.36673 21.7574 1.18927C13.9594 3.26127 8.37342 8.04927 4.99942 15.3853C3.58542 18.4513 2.91342 21.6993 2.85742 25.0733C2.84342 25.7453 3.16542 26.2213 3.72542 26.2213ZM51.0034 23.3933C48.7774 22.3153 46.4674 21.7273 44.0174 21.7413C41.5814 21.7553 39.2854 22.3573 37.0734 23.4773C36.6114 16.3093 36.0374 9.22527 32.2154 2.86927C41.5814 4.29727 50.1354 12.7953 51.0034 23.3933ZM30.2274 3.73727C31.3894 5.10927 32.0754 6.74727 32.6494 8.42727C33.8674 11.9973 34.4694 15.6933 34.7914 19.4313C34.9034 20.7333 34.9734 22.0493 35.0714 23.4633C30.3254 21.1673 25.7054 21.1673 20.9874 23.4493C21.0574 22.2873 21.0854 21.2373 21.1694 20.1873C21.4914 15.8893 22.0934 11.6473 23.6894 7.61527C24.2214 6.27127 24.9214 4.95527 25.7754 3.79327C27.1334 1.91727 28.7154 1.94527 30.2274 3.73727ZM10.5994 10.3313C14.1274 6.31327 18.5374 3.83527 23.8574 2.78527C20.7214 7.75527 19.8254 13.2433 19.2514 18.8153C19.0974 20.3273 19.0274 21.8533 18.9154 23.4773C16.7034 22.3713 14.4074 21.7553 11.9714 21.7413C9.53542 21.7273 7.23942 22.2873 4.92942 23.4213C5.47542 18.3813 7.33742 14.0553 10.5994 10.3313Z" fill="#494949"/>
</svg>
