<svg width="62" height="62" viewBox="0 0 62 62" fill="none" xmlns="http://www.w3.org/2000/svg">
<path d="M61.0699 22.0874C59.3649 20.8009 57.6599 19.5144 55.9239 18.2589C55.5829 18.0109 55.4434 17.7474 55.4434 17.3134C55.4589 13.5624 55.4589 9.81144 55.4589 6.06044C55.4589 5.11494 55.0249 4.61894 54.1414 4.61894C51.6149 4.60344 49.1039 4.60344 46.5774 4.61894C45.7714 4.61894 45.3064 5.09944 45.2909 5.90544C45.2754 7.17644 45.2909 8.44744 45.2909 9.71844C45.2909 9.88894 45.2754 10.0594 45.2444 10.2919C44.9964 10.1214 44.8259 9.99744 44.6554 9.85794C40.4394 6.71144 36.2079 3.58044 31.9919 0.433937C31.2014 -0.155063 30.8294 -0.155063 30.0389 0.433937C27.0629 2.65044 24.0869 4.86694 21.1109 7.08344C20.6459 7.43994 20.1654 7.76544 19.7004 8.13744C19.1579 8.57144 19.0494 9.28444 19.4369 9.81144C19.8244 10.3539 20.5064 10.4624 21.0954 10.1059C21.2504 10.0129 21.3899 9.90444 21.5449 9.79594C24.4744 7.61044 27.4194 5.45594 30.3179 3.23944C30.8449 2.83644 31.1549 2.82094 31.6974 3.22394C40.0674 9.47044 48.4529 15.7014 56.8384 21.9479C57.5359 22.4594 58.2179 22.9864 58.8534 23.4514C57.4429 24.8464 56.0634 26.2259 54.6529 27.6209C54.5599 27.5589 54.3894 27.4349 54.2344 27.3264C46.8719 21.8549 39.5094 16.3679 32.1469 10.8964C31.1859 10.1834 30.8604 10.1834 29.8994 10.9119C22.5989 16.3369 15.2984 21.7774 8.01339 27.2024C7.78089 27.3729 7.53289 27.5434 7.39339 27.6519C5.96739 26.2259 4.60339 24.8619 3.20839 23.4669C3.34789 23.3584 3.53389 23.2189 3.73539 23.0639C7.02139 20.6149 10.3074 18.1814 13.5934 15.7324C14.4924 15.0659 14.6784 14.4149 14.1979 13.7639C13.7174 13.1284 13.0199 13.1439 12.1364 13.7949C8.44739 16.5384 4.75839 19.2819 1.06939 22.0409C0.697387 22.3199 0.387387 22.7074 0.0463867 23.0329V23.7614C0.325387 24.0869 0.573387 24.4124 0.867887 24.7224C2.57289 26.4429 4.27789 28.1479 5.99839 29.8684C6.88189 30.7519 7.26939 30.7674 8.29239 30.0234C8.41639 29.9304 8.55589 29.8529 8.74189 29.7289V39.2149C8.55589 39.2304 8.35439 39.2459 8.16839 39.2459C6.47889 39.2459 4.77389 39.2924 3.08439 39.2304C1.58089 39.1684 0.557887 39.7264 0.0618867 41.1834V60.0624C0.371887 61.0389 1.02289 61.6899 1.99939 61.9999H11.2064C12.1829 61.6589 12.8804 61.0544 13.1284 59.9384C15.0659 60.6359 16.9414 61.3179 18.8324 61.9999H37.3549C38.7034 61.7209 40.0519 61.4109 41.1524 60.5429C42.8264 59.2254 44.4539 57.8304 46.0969 56.4509C48.9799 54.0174 51.8629 51.5839 54.7304 49.1504C56.7764 47.4144 57.3189 44.9654 56.1409 42.8264C55.5829 41.8189 54.7769 41.1059 53.7229 40.6254C53.5524 40.5479 53.3509 40.2999 53.3509 40.1294C53.3354 36.6884 53.3354 33.2319 53.3354 29.6514C53.6609 29.8839 53.9089 30.0854 54.1569 30.2559C54.7459 30.6589 55.2884 30.6434 55.7999 30.1474C57.7684 28.2099 59.7059 26.2414 61.6589 24.2884C61.8139 24.1334 61.9224 23.9474 62.0464 23.7614V23.0329C61.6899 22.7074 61.4109 22.3509 61.0699 22.0874ZM52.9944 16.0269C52.8549 15.9339 52.7154 15.8719 52.6069 15.7944C51.1034 14.6784 49.5999 13.5624 48.0964 12.4309C47.9259 12.3069 47.7244 12.0744 47.7244 11.8884C47.6934 10.3074 47.7089 8.71094 47.7089 7.06794H53.0099V16.0269H52.9944ZM10.6329 59.5354H2.46439V41.6949H5.33189V42.3614C5.33189 44.9964 5.33189 47.6469 5.33189 50.2819C5.33189 51.2584 5.79689 51.8319 6.55639 51.8164C7.31589 51.8009 7.74989 51.2429 7.74989 50.2509C7.74989 47.6314 7.74989 45.0119 7.74989 42.3924V41.6949H10.6174V59.5354H10.6329ZM54.2344 45.3529C54.1879 46.1279 53.8004 46.7169 53.2114 47.1974C50.0184 49.8944 46.8409 52.5914 43.6479 55.2884C42.5939 56.1719 41.5399 57.0554 40.5169 57.9544C39.2304 59.0704 37.7424 59.5974 36.0219 59.5819C30.6124 59.5664 25.2029 59.5819 19.8089 59.5664C19.6074 59.5664 19.3904 59.5974 19.2044 59.5354C17.1739 58.8224 15.1434 58.1094 13.0974 57.3809V43.8649C13.2679 43.8494 13.4384 43.8339 13.6089 43.8339C16.3679 43.8339 19.1424 43.8339 21.9014 43.8339C23.1259 43.8339 24.2574 44.1594 25.2804 44.8259C27.9464 46.5929 30.6124 48.3754 33.2784 50.1579C33.8829 50.5609 34.2239 51.1034 34.0844 51.8474C33.9604 52.5294 33.5264 53.0099 32.8444 53.0874C32.4414 53.1339 31.9609 53.0254 31.5734 52.8394C29.3724 51.8319 27.2024 50.7779 25.0169 49.7239C24.5364 49.4914 24.0869 49.4914 23.6529 49.8169C23.2654 50.1114 23.0794 50.5454 23.2499 50.9949C23.3739 51.3204 23.6219 51.7079 23.9319 51.8474C26.2724 53.0099 28.6284 54.1569 31.0154 55.2264C32.9064 56.0634 35.0764 55.2419 36.0529 53.4439C37.0139 51.6614 36.5334 49.4449 34.8284 48.2824C32.0539 46.3914 29.2329 44.5314 26.4274 42.6869C25.0789 41.8034 23.5754 41.4004 21.9634 41.4004C19.2354 41.4004 16.5229 41.4004 13.7949 41.4004C13.5779 41.4004 13.3454 41.4004 13.1129 41.4004C12.8804 40.3929 12.3689 39.6644 11.3614 39.3079C11.2529 39.2769 11.1599 39.0289 11.1599 38.8894C11.1444 35.3244 11.1444 31.7439 11.1599 28.1789C11.1599 27.9929 11.2684 27.7449 11.4234 27.6364C17.9179 22.7849 24.4279 17.9644 30.9379 13.1284C30.9534 13.1129 30.9689 13.1129 31.0464 13.0974C32.7359 14.3529 34.4409 15.6239 36.1614 16.8949C40.8734 20.3979 45.5699 23.9009 50.2974 27.3884C50.7004 27.6829 50.8864 27.9774 50.8864 28.5199C50.8554 32.4259 50.8709 36.3474 50.8709 40.3309C49.6154 40.5479 48.7319 41.3074 47.8329 42.0669C44.9654 44.4849 42.0979 46.9029 39.2149 49.3054C38.8274 49.6309 38.5174 49.9874 38.5639 50.5299C38.6414 51.4909 39.7264 51.9559 40.5169 51.3669C41.2299 50.8244 41.8809 50.2354 42.5629 49.6619C45.0894 47.5384 47.6159 45.3994 50.1579 43.2759C50.9949 42.5784 51.9559 42.4544 52.9169 42.9659C53.8469 43.4619 54.2964 44.2834 54.2344 45.3529ZM16.9104 12.9114C17.5769 12.9114 18.1349 12.3379 18.1194 11.6559C18.0884 11.0049 17.5614 10.4934 16.8949 10.5089C16.2284 10.5244 15.7169 11.0359 15.7324 11.7179C15.7169 12.3844 16.2439 12.9114 16.9104 12.9114ZM36.2234 24.5984C36.2079 23.8854 35.8514 23.4359 35.3244 23.2964C34.7664 23.1569 34.2549 23.4049 33.8984 24.0404C31.2789 28.6904 28.6439 33.3249 26.0244 37.9749C25.5904 38.7344 25.7454 39.4474 26.3964 39.8039C27.0164 40.1449 27.6984 39.9124 28.1014 39.1839C30.7209 34.5339 33.3559 29.8994 35.9599 25.2494C36.1149 25.0014 36.1769 24.7224 36.2234 24.5984ZM29.7909 24.9239C29.7754 22.6609 27.9154 20.8319 25.6524 20.8319C23.3894 20.8474 21.5449 22.7074 21.5604 24.9704C21.5759 27.2179 23.4359 29.0779 25.6989 29.0624C27.9619 29.0624 29.8064 27.2024 29.7909 24.9239ZM25.6834 26.6444C24.7689 26.6444 23.9939 25.8694 23.9939 24.9549C23.9939 24.0404 24.7689 23.2654 25.6834 23.2654C26.6134 23.2654 27.3729 24.0249 27.3729 24.9549C27.3729 25.8849 26.5979 26.6444 25.6834 26.6444ZM40.4394 36.7039C40.4394 34.4254 38.6104 32.5809 36.3474 32.5809C34.0689 32.5809 32.2244 34.4099 32.2089 36.6729C32.2089 38.9359 34.0534 40.7959 36.3164 40.8114C38.5794 40.8114 40.4394 38.9669 40.4394 36.7039ZM36.3319 38.3779C35.4174 38.3779 34.6424 37.6029 34.6269 36.6884C34.6269 35.7739 35.3864 34.9989 36.3164 34.9989C37.2464 34.9989 38.0059 35.7584 38.0059 36.6729C38.0214 37.6029 37.2619 38.3779 36.3319 38.3779ZM6.60289 54.2034C5.93639 54.2034 5.40939 54.7304 5.40939 55.3814C5.40939 56.0789 5.95189 56.6059 6.63389 56.5904C7.30039 56.5749 7.81189 56.0479 7.79639 55.3814C7.79639 54.7149 7.26939 54.2034 6.60289 54.2034Z" fill="#494949"/>
</svg>
