<svg width="48" height="54" viewBox="0 0 48 54" fill="none" xmlns="http://www.w3.org/2000/svg">
<path d="M47.4898 5.62935C47.4898 2.78085 45.3973 -0.0541524 41.8063 -0.0271524C29.9398 0.0673476 18.0733 0.0133476 6.19327 0.0133476C5.95027 0.0133476 5.72077 0.0133476 5.47777 0.0268476C4.41127 0.0403476 3.46627 0.404848 2.64277 1.06635C1.10377 2.26785 0.509766 3.90135 0.509766 5.83185C0.523266 18.7243 0.509766 31.6303 0.523266 44.5228C0.523266 44.8198 0.523266 45.1168 0.550266 45.4003C0.712266 48.1273 2.91277 50.2873 5.62627 50.3818C5.99077 50.3953 6.34177 50.3818 6.77377 50.3818C6.77377 50.8813 6.74677 51.2998 6.77377 51.7183C6.85477 53.1493 7.77277 54.0133 9.19027 54.0133C11.3503 54.0133 13.5238 54.0133 15.6838 54.0133C17.1418 54.0133 18.0868 53.0818 18.1273 51.6238C18.1408 51.2458 18.1273 50.8543 18.1273 50.4493H29.8048C29.8048 50.8813 29.7913 51.2728 29.8048 51.6508C29.8318 53.0278 30.7768 53.9998 32.1673 54.0133C34.3813 54.0403 36.6088 54.0403 38.8228 54.0133C40.1728 53.9998 41.1178 53.0278 41.1448 51.6643C41.1583 51.2593 41.1448 50.8678 41.1448 50.4493C41.8873 50.3953 42.5893 50.4223 43.2643 50.2873C45.7618 49.7878 47.4358 47.5873 47.4493 44.7523C47.4898 31.7113 47.4628 18.6703 47.4898 5.62935ZM16.1698 51.6238C16.1428 51.7588 15.8863 51.9613 15.7243 51.9613C13.5508 51.9883 11.3638 51.9748 9.19027 51.9748C8.81227 51.9748 8.66377 51.8128 8.67727 51.4348C8.69077 51.1108 8.67727 50.7868 8.67727 50.4223H16.1833C16.1968 50.8408 16.2373 51.2323 16.1698 51.6238ZM37.9723 51.9748C36.1768 51.9748 34.3813 51.9748 32.5723 51.9748C31.7353 51.9748 31.7083 51.9478 31.7083 51.1108C31.7083 50.9083 31.7083 50.7058 31.7083 50.4358H39.1738C39.2008 50.5033 39.2413 50.5573 39.2413 50.5978C39.3493 51.9748 39.3493 51.9748 37.9723 51.9748ZM44.6818 47.2498C44.0068 48.0193 43.1563 48.3433 42.1438 48.3433C37.9723 48.3433 33.8143 48.3433 29.6428 48.3433C21.7858 48.3433 13.9423 48.3163 6.08527 48.3703C3.73627 48.3838 2.41327 46.6288 2.41327 44.6848C2.42677 31.6978 2.42677 18.7108 2.41327 5.71035C2.41327 3.88785 3.61477 2.02485 6.09877 2.03835C18.0193 2.07885 29.9533 2.05185 41.8738 2.05185C44.1958 2.05185 45.5593 3.41535 45.5593 5.75085C45.5593 12.2443 45.5593 18.7378 45.5593 25.2313C45.5593 31.7113 45.5593 38.1778 45.5593 44.6578C45.5728 45.6298 45.3298 46.5073 44.6818 47.2498ZM43.6558 8.14035C43.6153 5.96685 42.2788 4.65735 40.1188 4.65735C36.5818 4.65735 33.0313 4.65735 29.4943 4.65735C22.2448 4.65735 14.9953 4.65735 7.75927 4.65735C6.59827 4.65735 5.65327 5.06235 4.96477 6.02085C4.49227 6.66885 4.33027 7.41135 4.33027 8.20785C4.33027 15.1198 4.33027 22.0453 4.33027 28.9573C4.33027 29.0923 4.33027 29.2138 4.34377 29.3353C4.50577 31.3063 5.80177 32.5078 7.78627 32.5078C13.1863 32.5078 18.5728 32.5078 23.9728 32.5078C29.4403 32.5078 34.9078 32.5078 40.3753 32.5078C41.9008 32.5078 43.1023 31.6168 43.4938 30.1453C43.6153 29.6863 43.6558 29.2003 43.6558 28.7278C43.6693 22.5988 43.6693 16.4698 43.6693 10.3408C43.6693 9.61185 43.6693 8.88285 43.6558 8.14035ZM40.1728 30.4423C34.7728 30.4423 29.3863 30.4423 23.9863 30.4423C18.6133 30.4423 13.2403 30.4423 7.85377 30.4423C6.67927 30.4423 6.26077 30.0373 6.26077 28.8628C6.26077 22.0183 6.26077 15.1738 6.26077 8.32935C6.26077 7.15485 6.67927 6.73635 7.84027 6.73635C18.6133 6.73635 29.3863 6.73635 40.1593 6.73635C41.3068 6.73635 41.7253 7.15485 41.7253 8.28885C41.7253 15.1468 41.7253 22.0183 41.7253 28.8763C41.7253 30.0238 41.3068 30.4423 40.1728 30.4423ZM24.3103 36.7198C22.7173 38.5018 22.6093 41.2963 24.0673 43.2268C24.9313 44.3608 26.1058 44.9143 27.6043 44.9818C27.8203 44.9548 28.1173 44.9548 28.4008 44.9008C30.1558 44.5498 31.3168 43.4833 31.8568 41.7958C32.4643 39.9058 32.1673 38.1643 30.8308 36.6658C29.0488 34.6948 26.0788 34.7353 24.3103 36.7198ZM27.5503 42.9433C26.0923 42.9028 24.9448 41.6338 24.9718 40.0678C24.9988 38.4613 26.1328 37.2733 27.6178 37.2868C29.1298 37.3003 30.2638 38.5558 30.2368 40.1623C30.2098 41.7013 28.9678 42.9838 27.5503 42.9433ZM40.5778 35.4778C37.6483 34.4113 34.5703 36.7333 34.5163 40.0273C34.5703 40.4458 34.5973 40.8643 34.6918 41.2828C35.1238 43.3753 36.8248 44.8738 38.7958 44.9683C41.2258 45.0763 43.0618 43.5643 43.5478 41.0668C44.0203 38.6773 42.7243 36.2608 40.5778 35.4778ZM39.0793 42.9433C37.6618 42.9298 36.4738 41.6608 36.4603 40.1488C36.4468 38.5423 37.5943 37.3003 39.0928 37.2868C40.6048 37.2868 41.7388 38.5018 41.7253 40.1353C41.7253 41.6743 40.5103 42.9568 39.0793 42.9433ZM19.1938 39.0823C17.6413 39.0688 16.0753 39.0688 14.5228 39.0823C13.8883 39.0823 13.4698 39.5143 13.4698 40.1083C13.4698 40.7023 13.8883 41.1073 14.5363 41.1208C15.2923 41.1343 16.0348 41.1208 16.7908 41.1208C17.5738 41.1208 18.3703 41.1208 19.1533 41.1208C19.8013 41.1073 20.2198 40.7158 20.2333 40.1353C20.2468 39.5413 19.8283 39.0958 19.1938 39.0823ZM10.1083 39.0823C8.51527 39.0553 6.92227 39.0553 5.32927 39.0823C4.68127 39.0958 4.33027 39.5143 4.35727 40.1488C4.38427 40.7563 4.73527 41.1073 5.38327 41.1073C6.15277 41.1208 6.92227 41.1073 7.69177 41.1073C8.47477 41.1073 9.27127 41.1208 10.0543 41.1073C10.7023 41.0938 11.0938 40.7023 11.0938 40.0948C11.1073 39.5143 10.7293 39.0958 10.1083 39.0823ZM38.4583 17.7658C36.9328 17.7523 35.4073 17.7523 33.8953 17.7658C33.5578 17.7658 33.3688 17.6578 33.2203 17.3608C32.7613 16.4698 32.2483 15.5923 31.7758 14.7013C31.5733 14.3233 31.2898 14.0398 30.8308 14.0533C30.3853 14.0668 30.1153 14.3638 29.9263 14.7553C29.5483 15.5653 29.1433 16.3753 28.7518 17.1853C28.3603 17.9818 27.9823 18.7783 27.5638 19.6693C27.4828 19.4263 27.4423 19.2913 27.4018 19.1428C26.8213 16.9423 26.2543 14.7418 25.6738 12.5548C25.6468 12.4468 25.6198 12.3388 25.5928 12.2308C25.4443 11.7853 25.1338 11.5153 24.6478 11.5288C24.1753 11.5423 23.8648 11.8258 23.7568 12.2983C23.5003 13.4593 23.2438 14.6203 22.9873 15.7948C22.7173 17.0098 22.4608 18.2248 22.1908 19.4398C22.0693 19.2913 22.0153 19.1563 21.9883 19.0213C21.4348 16.5508 20.8678 14.0938 20.3143 11.6233C20.2063 11.1238 20.0308 10.6378 19.4503 10.5433C18.8563 10.4488 18.5728 10.8538 18.3163 11.3128C17.2633 13.2433 16.1833 15.1603 15.1438 17.0908C14.9548 17.4553 14.7388 17.5633 14.3338 17.5633C12.7813 17.5363 11.2153 17.5498 9.64927 17.5498C8.86627 17.5498 8.44777 17.9143 8.43427 18.5893C8.42077 19.2643 8.83927 19.6288 9.62227 19.6288C11.4583 19.6288 13.2943 19.6153 15.1303 19.6423C15.7243 19.6558 16.0888 19.4263 16.3588 18.9133C17.0878 17.5633 17.8438 16.2133 18.5863 14.8633C18.6673 14.7148 18.7618 14.5798 18.9103 14.3503C18.9643 14.5393 18.9913 14.6203 19.0048 14.7013C19.7338 17.9008 20.4628 21.1003 21.1783 24.2998C21.2998 24.8263 21.5968 25.1638 22.1368 25.1908C22.5958 25.2178 22.9468 24.8803 23.0818 24.2863C23.2303 23.6383 23.3653 23.0038 23.5003 22.3558C23.8918 20.5738 24.2698 18.7783 24.6613 16.9963C24.7018 16.9963 24.7423 16.9828 24.7828 16.9828C25.2688 18.8593 25.7683 20.7358 26.2543 22.6123C26.3758 23.0848 26.5918 23.4763 27.1453 23.5303C27.6853 23.5843 27.9688 23.2333 28.1848 22.7878C28.9678 21.1273 29.7643 19.4803 30.5608 17.8333C30.6418 17.6578 30.7363 17.4958 30.8713 17.2528C31.2493 17.9548 31.6003 18.5623 31.9378 19.1968C32.1403 19.5883 32.4373 19.8313 32.8963 19.8313C34.7728 19.8313 36.6358 19.8583 38.5123 19.8043C38.8093 19.7908 39.2008 19.5073 39.3628 19.2373C39.7948 18.5353 39.2953 17.7793 38.4583 17.7658Z" fill="black"/>
</svg>
