<svg width="38" height="38" viewBox="0 0 38 38" fill="none" xmlns="http://www.w3.org/2000/svg">
<path d="M18.28 3.69629C18.7624 3.69629 19.2448 3.69629 19.7272 3.69629C19.8015 3.71113 19.8683 3.7334 19.9425 3.74082C21.1151 3.8373 22.2507 4.10449 23.312 4.6166C27.3718 6.60566 29.4944 9.87129 29.5612 14.3912C29.6206 18.2357 29.5761 22.0877 29.5761 25.9322C29.5761 26.051 29.5761 26.1623 29.5761 26.3033C30.3776 26.3033 31.1347 26.3033 31.914 26.3033C31.914 26.4369 31.914 26.5482 31.914 26.6596C31.914 28.5076 31.9214 30.3482 31.9214 32.1963C23.312 32.1963 14.7026 32.1963 6.09326 32.1963C6.09326 30.2369 6.09326 28.2701 6.09326 26.2885C6.90225 26.2885 7.65928 26.2885 8.43857 26.2885C8.43857 26.1549 8.43857 26.051 8.43857 25.9396C8.43857 22.11 8.43115 18.2803 8.446 14.4506C8.446 13.7826 8.49795 13.1146 8.60928 12.4615C9.2624 8.35723 12.5577 4.86895 16.6175 3.97832C17.1593 3.85215 17.7233 3.78535 18.28 3.69629ZM27.8987 26.2811C27.8987 26.1697 27.8987 26.1029 27.8987 26.0287C27.8987 22.1248 27.9062 18.2209 27.8913 14.3096C27.8913 13.6564 27.8171 12.9885 27.6761 12.3502C26.6593 7.60019 21.8944 4.52012 17.1815 5.54434C12.9956 6.45723 10.1085 10.042 10.1011 14.3467C10.0937 18.2209 10.1011 22.1025 10.1011 25.9768C10.1011 26.0732 10.1011 26.1697 10.1011 26.2736C16.0534 26.2811 21.9612 26.2811 27.8987 26.2811ZM30.2218 27.9881C22.7331 27.9881 15.2593 27.9881 7.78545 27.9881C7.78545 28.8416 7.78545 29.6729 7.78545 30.5041C15.2741 30.5041 22.7405 30.5041 30.2218 30.5041C30.2218 29.658 30.2218 28.8268 30.2218 27.9881Z" fill="#636363"/>
<path d="M18.28 3.69629C18.7624 3.69629 19.2448 3.69629 19.7272 3.69629C19.8015 3.71113 19.8683 3.7334 19.9425 3.74082C21.1151 3.8373 22.2507 4.10449 23.312 4.6166C27.3718 6.60566 29.4944 9.87129 29.5612 14.3912C29.6206 18.2357 29.5761 22.0877 29.5761 25.9322C29.5761 26.051 29.5761 26.1623 29.5761 26.3033C30.3776 26.3033 31.1347 26.3033 31.914 26.3033C31.914 26.4369 31.914 26.5482 31.914 26.6596C31.914 28.5076 31.9214 30.3482 31.9214 32.1963C23.312 32.1963 14.7026 32.1963 6.09326 32.1963C6.09326 30.2369 6.09326 28.2701 6.09326 26.2885C6.90225 26.2885 7.65928 26.2885 8.43857 26.2885C8.43857 26.1549 8.43857 26.051 8.43857 25.9396C8.43857 22.11 8.43115 18.2803 8.446 14.4506C8.446 13.7826 8.49795 13.1146 8.60928 12.4615C9.2624 8.35723 12.5577 4.86895 16.6175 3.97832C17.1593 3.85215 17.7233 3.78535 18.28 3.69629ZM27.8987 26.2811C27.8987 26.1697 27.8987 26.1029 27.8987 26.0287C27.8987 22.1248 27.9062 18.2209 27.8913 14.3096C27.8913 13.6564 27.8171 12.9885 27.6761 12.3502C26.6593 7.60019 21.8944 4.52012 17.1815 5.54434C12.9956 6.45723 10.1085 10.042 10.1011 14.3467C10.0937 18.2209 10.1011 22.1025 10.1011 25.9768C10.1011 26.0732 10.1011 26.1697 10.1011 26.2736C16.0534 26.2811 21.9612 26.2811 27.8987 26.2811ZM30.2218 27.9881C22.7331 27.9881 15.2593 27.9881 7.78545 27.9881C7.78545 28.8416 7.78545 29.6729 7.78545 30.5041C15.2741 30.5041 22.7405 30.5041 30.2218 30.5041C30.2218 29.658 30.2218 28.8268 30.2218 27.9881Z" fill="black" fill-opacity="0.2"/>
<path d="M16.4914 16.6103C16.9367 17.3747 17.3895 18.1317 17.8645 18.9481C17.3078 18.9481 16.8031 18.9556 16.2984 18.9407C16.2316 18.9407 16.1574 18.8368 16.1129 18.77C15.8457 18.3247 15.5488 17.8942 15.3262 17.4267C15.1184 17.0036 14.8437 16.8106 14.3762 16.8997C14.2797 16.922 14.1758 16.8997 14.0496 16.8997C14.0496 17.5974 14.0496 18.2579 14.0496 18.9333C13.5598 18.9333 13.0996 18.9333 12.6172 18.9333C12.6172 16.8403 12.6172 14.7399 12.6172 12.6099C12.9141 12.6099 13.2109 12.6099 13.5004 12.6099C14.0941 12.6099 14.6879 12.6099 15.2816 12.6099C16.3059 12.6099 17.0926 13.1739 17.4043 14.1239C17.7012 15.022 17.3746 15.9423 16.5582 16.5435C16.5434 16.5583 16.5285 16.5806 16.4914 16.6103ZM14.0645 15.5935C14.1164 15.6083 14.1461 15.6157 14.1684 15.6157C14.5395 15.6157 14.9105 15.6231 15.2816 15.6157C15.6973 15.6157 15.9348 15.3931 16.0016 14.9626C16.0832 14.4653 15.8977 13.9903 15.5191 13.9384C15.0441 13.8716 14.5543 13.9235 14.0645 13.9235C14.0645 14.4876 14.0645 15.0294 14.0645 15.5935Z" fill="#636363"/>
<path d="M16.4914 16.6103C16.9367 17.3747 17.3895 18.1317 17.8645 18.9481C17.3078 18.9481 16.8031 18.9556 16.2984 18.9407C16.2316 18.9407 16.1574 18.8368 16.1129 18.77C15.8457 18.3247 15.5488 17.8942 15.3262 17.4267C15.1184 17.0036 14.8437 16.8106 14.3762 16.8997C14.2797 16.922 14.1758 16.8997 14.0496 16.8997C14.0496 17.5974 14.0496 18.2579 14.0496 18.9333C13.5598 18.9333 13.0996 18.9333 12.6172 18.9333C12.6172 16.8403 12.6172 14.7399 12.6172 12.6099C12.9141 12.6099 13.2109 12.6099 13.5004 12.6099C14.0941 12.6099 14.6879 12.6099 15.2816 12.6099C16.3059 12.6099 17.0926 13.1739 17.4043 14.1239C17.7012 15.022 17.3746 15.9423 16.5582 16.5435C16.5434 16.5583 16.5285 16.5806 16.4914 16.6103ZM14.0645 15.5935C14.1164 15.6083 14.1461 15.6157 14.1684 15.6157C14.5395 15.6157 14.9105 15.6231 15.2816 15.6157C15.6973 15.6157 15.9348 15.3931 16.0016 14.9626C16.0832 14.4653 15.8977 13.9903 15.5191 13.9384C15.0441 13.8716 14.5543 13.9235 14.0645 13.9235C14.0645 14.4876 14.0645 15.0294 14.0645 15.5935Z" fill="black" fill-opacity="0.2"/>
<path d="M12.5874 22.0654C12.5874 21.5162 12.5874 20.9818 12.5874 20.4326C16.8624 20.4326 21.1226 20.4326 25.405 20.4326C25.405 20.9744 25.405 21.5162 25.405 22.0654C21.13 22.0654 16.8698 22.0654 12.5874 22.0654Z" fill="#636363"/>
<path d="M12.5874 22.0654C12.5874 21.5162 12.5874 20.9818 12.5874 20.4326C16.8624 20.4326 21.1226 20.4326 25.405 20.4326C25.405 20.9744 25.405 21.5162 25.405 22.0654C21.13 22.0654 16.8698 22.0654 12.5874 22.0654Z" fill="black" fill-opacity="0.2"/>
<path d="M22.711 16.8922C22.711 17.5898 22.711 18.2504 22.711 18.9332C22.2063 18.9332 21.7388 18.9332 21.2563 18.9332C21.2563 16.8328 21.2563 14.7398 21.2563 12.632C21.3454 12.6246 21.4271 12.6172 21.5013 12.6172C22.2806 12.6172 23.0599 12.6172 23.8392 12.6172C24.7892 12.6172 25.4497 13.0773 25.8208 13.9234C26.1993 14.7844 26.0212 15.5785 25.42 16.2762C25.0786 16.6695 24.6259 16.8848 24.0989 16.8996C23.6536 16.8996 23.2009 16.8922 22.711 16.8922ZM22.7259 15.6156C23.1563 15.6156 23.5646 15.6453 23.9653 15.6008C24.1212 15.5859 24.3142 15.4449 24.3958 15.3039C24.5888 14.9699 24.6036 14.584 24.4032 14.2426C24.3142 14.0941 24.1212 13.9383 23.9579 13.9234C23.5571 13.8789 23.1489 13.9086 22.7259 13.9086C22.7259 14.4727 22.7259 15.0293 22.7259 15.6156Z" fill="#636363"/>
<path d="M22.711 16.8922C22.711 17.5898 22.711 18.2504 22.711 18.9332C22.2063 18.9332 21.7388 18.9332 21.2563 18.9332C21.2563 16.8328 21.2563 14.7398 21.2563 12.632C21.3454 12.6246 21.4271 12.6172 21.5013 12.6172C22.2806 12.6172 23.0599 12.6172 23.8392 12.6172C24.7892 12.6172 25.4497 13.0773 25.8208 13.9234C26.1993 14.7844 26.0212 15.5785 25.42 16.2762C25.0786 16.6695 24.6259 16.8848 24.0989 16.8996C23.6536 16.8996 23.2009 16.8922 22.711 16.8922ZM22.7259 15.6156C23.1563 15.6156 23.5646 15.6453 23.9653 15.6008C24.1212 15.5859 24.3142 15.4449 24.3958 15.3039C24.5888 14.9699 24.6036 14.584 24.4032 14.2426C24.3142 14.0941 24.1212 13.9383 23.9579 13.9234C23.5571 13.8789 23.1489 13.9086 22.7259 13.9086C22.7259 14.4727 22.7259 15.0293 22.7259 15.6156Z" fill="black" fill-opacity="0.2"/>
<path d="M18.5845 12.6245C19.0669 12.6245 19.5271 12.6245 20.0169 12.6245C20.0169 14.7249 20.0169 16.8179 20.0169 18.9257C19.5419 18.9257 19.0743 18.9257 18.5845 18.9257C18.5845 16.8327 18.5845 14.7397 18.5845 12.6245Z" fill="#636363"/>
<path d="M18.5845 12.6245C19.0669 12.6245 19.5271 12.6245 20.0169 12.6245C20.0169 14.7249 20.0169 16.8179 20.0169 18.9257C19.5419 18.9257 19.0743 18.9257 18.5845 18.9257C18.5845 16.8327 18.5845 14.7397 18.5845 12.6245Z" fill="black" fill-opacity="0.2"/>
</svg>
