<svg width="26" height="29" viewBox="0 0 26 29" fill="none" xmlns="http://www.w3.org/2000/svg">
<path d="M12.1867 0C12.6691 0 13.1516 0 13.634 0C13.7082 0.0148438 13.775 0.0371095 13.8492 0.0445314C15.0219 0.141016 16.1574 0.408203 17.2188 0.920313C21.2785 2.90938 23.4012 6.175 23.468 10.6949C23.5273 14.5395 23.4828 18.3914 23.4828 22.2359C23.4828 22.3547 23.4828 22.466 23.4828 22.607C24.2844 22.607 25.0414 22.607 25.8207 22.607C25.8207 22.7406 25.8207 22.852 25.8207 22.9633C25.8207 24.8113 25.8281 26.652 25.8281 28.5C17.2188 28.5 8.60938 28.5 0 28.5C0 26.5406 0 24.5738 0 22.5922C0.808984 22.5922 1.56602 22.5922 2.34531 22.5922C2.34531 22.4586 2.34531 22.3547 2.34531 22.2434C2.34531 18.4137 2.33789 14.584 2.35273 10.7543C2.35273 10.0863 2.40469 9.41836 2.51602 8.76523C3.16914 4.66094 6.46445 1.17266 10.5242 0.282031C11.066 0.155859 11.6301 0.0890625 12.1867 0ZM21.8055 22.5848C21.8055 22.4734 21.8055 22.4066 21.8055 22.3324C21.8055 18.4285 21.8129 14.5246 21.798 10.6133C21.798 9.96016 21.7238 9.29219 21.5828 8.65391C20.566 3.90391 15.8012 0.823828 11.0883 1.84805C6.90234 2.76094 4.01523 6.3457 4.00781 10.6504C4.00039 14.5246 4.00781 18.4063 4.00781 22.2805C4.00781 22.377 4.00781 22.4734 4.00781 22.5773C9.96016 22.5848 15.868 22.5848 21.8055 22.5848ZM24.1285 24.2918C16.6398 24.2918 9.16602 24.2918 1.69219 24.2918C1.69219 25.1453 1.69219 25.9766 1.69219 26.8078C9.18086 26.8078 16.6473 26.8078 24.1285 26.8078C24.1285 25.9617 24.1285 25.1305 24.1285 24.2918Z" fill="white"/>
<path d="M10.3981 12.914C10.8435 13.6784 11.2962 14.4354 11.7712 15.2519C11.2146 15.2519 10.7099 15.2593 10.2052 15.2444C10.1384 15.2444 10.0642 15.1405 10.0196 15.0737C9.75244 14.6284 9.45557 14.1979 9.23291 13.7304C9.0251 13.3073 8.75049 13.1144 8.28291 13.2034C8.18643 13.2257 8.08252 13.2034 7.95635 13.2034C7.95635 13.9011 7.95635 14.5616 7.95635 15.237C7.4665 15.237 7.00635 15.237 6.52393 15.237C6.52393 13.144 6.52393 11.0437 6.52393 8.91357C6.8208 8.91357 7.11768 8.91357 7.40713 8.91357C8.00088 8.91357 8.59463 8.91357 9.18838 8.91357C10.2126 8.91357 10.9993 9.47764 11.311 10.4276C11.6079 11.3257 11.2813 12.246 10.4649 12.8472C10.4501 12.862 10.4353 12.8843 10.3981 12.914ZM7.97119 11.8972C8.02314 11.912 8.05283 11.9194 8.0751 11.9194C8.44619 11.9194 8.81728 11.9269 9.18838 11.9194C9.604 11.9194 9.8415 11.6968 9.9083 11.2663C9.98994 10.769 9.80439 10.294 9.42588 10.2421C8.95088 10.1753 8.46104 10.2272 7.97119 10.2272C7.97119 10.7913 7.97119 11.3331 7.97119 11.8972Z" fill="white"/>
<path d="M6.49414 18.3691C6.49414 17.8199 6.49414 17.2855 6.49414 16.7363C10.7691 16.7363 15.0293 16.7363 19.3117 16.7363C19.3117 17.2781 19.3117 17.8199 19.3117 18.3691C15.0367 18.3691 10.7766 18.3691 6.49414 18.3691Z" fill="white"/>
<path d="M16.6178 13.1959C16.6178 13.8936 16.6178 14.5541 16.6178 15.2369C16.1131 15.2369 15.6455 15.2369 15.1631 15.2369C15.1631 13.1365 15.1631 11.0436 15.1631 8.93574C15.2521 8.92832 15.3338 8.9209 15.408 8.9209C16.1873 8.9209 16.9666 8.9209 17.7459 8.9209C18.6959 8.9209 19.3564 9.38106 19.7275 10.2271C20.1061 11.0881 19.9279 11.8822 19.3268 12.5799C18.9854 12.9732 18.5326 13.1885 18.0057 13.2033C17.5604 13.2033 17.1076 13.1959 16.6178 13.1959ZM16.6326 11.9193C17.0631 11.9193 17.4713 11.949 17.8721 11.9045C18.0279 11.8896 18.2209 11.7486 18.3025 11.6076C18.4955 11.2736 18.5104 10.8877 18.31 10.5463C18.2209 10.3979 18.0279 10.242 17.8646 10.2271C17.4639 10.1826 17.0557 10.2123 16.6326 10.2123C16.6326 10.7764 16.6326 11.333 16.6326 11.9193Z" fill="white"/>
<path d="M12.4912 8.92822C12.9736 8.92822 13.4338 8.92822 13.9236 8.92822C13.9236 11.0286 13.9236 13.1216 13.9236 15.2294C13.4486 15.2294 12.9811 15.2294 12.4912 15.2294C12.4912 13.1364 12.4912 11.0435 12.4912 8.92822Z" fill="white"/>
</svg>
