<svg width="40" height="53" viewBox="0 0 40 53" fill="none" xmlns="http://www.w3.org/2000/svg">
<path d="M39.8135 8.87677C39.7593 6.35743 38.0527 4.17671 35.6011 3.62137C34.7071 3.4182 33.759 3.47238 32.8244 3.4182C32.4587 3.40465 32.093 3.4182 31.7002 3.4182C31.7002 3.20148 31.7002 3.07958 31.7002 2.94413C31.6595 1.41356 30.603 0.370605 29.086 0.370605C23.045 0.370605 17.004 0.370605 10.9494 0.370605C9.55432 0.370605 8.49782 1.34583 8.36237 2.71387C8.33528 2.93058 8.33528 3.1473 8.32174 3.40465C7.50904 3.40465 6.7099 3.33693 5.9243 3.4182C5.11161 3.49947 4.24474 3.59428 3.52686 3.9329C1.26487 4.9894 0.235459 6.87214 0.235459 9.32375C0.221914 16.6922 0.221914 24.047 0.208369 31.4154C0.208369 36.4947 0.194824 41.5741 0.194824 46.6534C0.194824 48.8747 1.15651 50.5678 3.07988 51.665C3.6894 52.0036 4.39373 52.1526 5.05743 52.3828H34.9238C35.3979 52.2339 35.9126 52.139 36.3596 51.9223C38.6758 50.8387 39.7593 48.9831 39.7729 46.4637C39.7864 35.1402 39.8 23.8167 39.8 12.4797C39.8135 11.2878 39.8271 10.0823 39.8135 8.87677ZM11.41 3.45883H28.6255V6.4387H11.41V3.45883ZM36.7659 10.3667C36.7524 22.4081 36.7524 34.4359 36.7388 46.4773C36.7388 47.9943 35.9939 49.0102 34.68 49.2811C34.4498 49.3353 34.206 49.3353 33.9757 49.3353C24.6433 49.3353 15.3244 49.3353 5.99202 49.3353C4.28537 49.3353 3.24242 48.2923 3.24242 46.5721C3.25596 34.165 3.25596 21.7579 3.26951 9.3373C3.28305 7.46811 4.29891 6.46579 6.1681 6.46579C6.87244 6.46579 7.57677 6.46579 8.26756 6.46579C8.34883 6.96695 8.37592 7.40038 8.49782 7.79319C8.83644 8.86323 9.79812 9.51338 10.9901 9.51338C14.1731 9.51338 17.3562 9.51338 20.5392 9.51338C23.2753 9.51338 26.0249 9.51338 28.7609 9.51338C30.6843 9.51338 31.6189 8.61942 31.7002 6.69605C31.7002 6.64187 31.7137 6.60124 31.7408 6.42516C32.8108 6.47933 33.9215 6.4387 34.978 6.61478C36.0074 6.79087 36.7117 7.83382 36.7524 8.89032C36.7795 9.37793 36.7659 9.87909 36.7659 10.3667ZM31.2261 37.9576C29.4788 37.9576 27.7451 37.9576 25.9978 37.9576C24.2369 37.9576 22.4761 37.9576 20.7288 37.9576C19.6994 37.9576 19.0086 38.5806 18.9951 39.4746C18.9951 40.3686 19.6994 41.0052 20.7153 41.0052C24.2098 41.0052 27.718 41.0052 31.2125 41.0052C32.2419 41.0052 32.9192 40.3821 32.9056 39.4611C32.9056 38.5671 32.2284 37.9576 31.2261 37.9576ZM20.7153 20.6879C22.4626 20.6879 24.1963 20.6879 25.9436 20.6879C27.6909 20.6879 29.4246 20.6879 31.1719 20.6879C32.1878 20.6879 32.8921 20.0513 32.8921 19.1573C32.8786 18.2769 32.1878 17.6403 31.199 17.6403C27.7044 17.6403 24.1963 17.6403 20.7017 17.6403C19.713 17.6403 19.0222 18.2634 19.0086 19.1438C18.9951 20.0513 19.6994 20.6879 20.7153 20.6879ZM20.7424 30.8465C22.4626 30.8465 24.1963 30.8465 25.9165 30.8465C27.6909 30.8465 29.4653 30.8465 31.2396 30.8465C32.0117 30.8465 32.5806 30.4402 32.7973 29.7765C33.1224 28.7335 32.3774 27.7989 31.199 27.7989C27.718 27.7989 24.2369 27.7989 20.7424 27.7989C19.6859 27.7989 18.968 28.4355 18.9815 29.343C19.0086 30.237 19.713 30.8465 20.7424 30.8465ZM14.6878 25.5911C14.4034 25.6995 14.1189 25.9027 13.9022 26.1194C12.778 27.2165 11.6809 28.3407 10.4618 29.5598C10.1638 29.2076 9.92003 28.8419 9.6085 28.571C9.01252 28.0427 8.13211 28.0969 7.57677 28.6252C7.00788 29.167 6.92662 30.088 7.48196 30.684C8.14565 31.4019 8.83644 32.1062 9.56786 32.7564C10.1503 33.2981 10.9765 33.2981 11.5454 32.7428C13.1437 31.1852 14.7285 29.6004 16.2861 28.0021C16.7737 27.5009 16.7737 26.7424 16.3945 26.1736C16.0152 25.6318 15.3109 25.3609 14.6878 25.5911ZM14.0648 36.1019C13.1302 37.0094 12.2091 37.9305 11.3016 38.8651C11.0578 39.1224 10.8411 39.4069 10.5702 39.732C10.2045 39.3392 9.94712 39.0276 9.66268 38.7703C9.03961 38.2014 8.13211 38.2149 7.54968 38.7838C6.96725 39.3527 6.92662 40.2738 7.4955 40.8968C8.13211 41.5741 8.78226 42.2378 9.47305 42.8744C10.1097 43.4703 10.9494 43.4839 11.5725 42.8744C13.1302 41.3438 14.6743 39.7997 16.2048 38.242C16.8008 37.6325 16.7737 36.725 16.2048 36.129C15.6224 35.533 14.6878 35.4924 14.0648 36.1019ZM9.47305 21.7715C10.1097 22.3674 10.9494 22.381 11.5725 21.785C13.1437 20.2409 14.7014 18.6968 16.2319 17.112C16.8144 16.5161 16.7602 15.5815 16.1778 15.0126C15.5953 14.4437 14.6743 14.4302 14.0648 14.999C13.1572 15.8795 12.2633 16.787 11.3693 17.6809C11.0984 17.9518 10.8682 18.2634 10.516 18.6832C10.1638 18.2769 9.94712 17.9518 9.66268 17.6945C9.02607 17.0985 8.10502 17.1256 7.52259 17.7351C6.95371 18.3175 6.94016 19.2386 7.52259 19.8481C8.1592 20.4983 8.80935 21.1484 9.47305 21.7715Z" fill="#494949"/>
</svg>
