<svg width="54" height="61" viewBox="0 0 54 61" fill="none" xmlns="http://www.w3.org/2000/svg">
<path d="M53.2498 60.4775C52.5298 56.2025 51.8998 51.9275 51.0748 47.6825C50.3848 44.0525 48.2548 41.3825 44.8198 39.9875C42.2248 38.9375 39.5248 38.1425 36.8698 37.2425C35.7598 36.8675 35.7598 36.8675 35.6698 35.7575C35.6698 35.7275 35.6398 35.6975 35.6098 35.6375H33.8098C33.9148 38.2625 32.8348 40.6175 32.3548 43.2275C31.4548 42.1625 30.6748 41.2175 29.8948 40.2725C29.3998 39.6725 28.9798 38.8775 28.3348 38.5775C27.6898 38.2775 26.8048 38.4875 26.0248 38.5175C25.7848 38.5325 25.4998 38.6525 25.3498 38.8325C24.2398 40.1225 23.1598 41.4275 22.0798 42.7325C21.9748 42.8675 21.8548 42.9725 21.6598 43.1825C21.2248 40.5725 20.0998 38.2175 20.2198 35.6375H18.3598C18.3448 35.8025 18.3148 35.9225 18.3298 36.0275C18.4498 36.6725 18.1498 36.9125 17.5498 37.1075C15.1198 37.8725 12.7048 38.6975 10.2898 39.5225C5.96978 41.0075 3.49478 44.0375 2.77478 48.5225C2.33978 51.2225 1.87478 53.9075 1.42479 56.5925C1.19979 57.9725 1.00479 59.3675 0.779785 60.7475H53.2648C53.2498 60.6725 53.2648 60.5675 53.2498 60.4775ZM44.3248 58.7825C44.0248 55.8875 43.7398 52.9925 43.4398 50.0375C42.7798 50.0975 42.1798 50.1575 41.5198 50.2175C41.8048 53.0975 42.0898 55.9175 42.3748 58.7825H27.9748V42.4175H26.0548V58.7825H11.6248C11.9098 55.9625 12.1798 53.1425 12.4648 50.2475C11.8498 50.1875 11.2348 50.1125 10.5448 50.0375C10.2448 52.9775 9.95978 55.8875 9.65978 58.8125H2.99978C3.19478 57.6425 3.37478 56.5175 3.56978 55.3925C3.98978 52.9175 4.34978 50.4125 4.84478 47.9525C5.50478 44.7275 7.49979 42.5825 10.5748 41.4725C13.1398 40.5575 15.7498 39.7325 18.3448 38.8775C18.3898 38.8625 18.4648 38.8625 18.5848 38.8625C19.2898 41.6825 19.9948 44.4725 20.7148 47.3675C21.7348 46.1525 22.6798 45.0125 23.6248 43.8875C24.4798 42.8675 25.3198 41.8475 26.1748 40.8275C26.6098 40.3025 27.3748 40.3025 27.8248 40.8275C29.4598 42.7925 31.0948 44.7575 32.7448 46.7225C32.9098 46.9175 33.0748 47.0975 33.2998 47.3525C34.0198 44.4725 34.7248 41.6825 35.4148 38.8925C35.5048 38.8775 35.5648 38.8475 35.6098 38.8625C38.3098 39.7625 41.0398 40.6025 43.6948 41.5925C46.6498 42.6875 48.5398 44.8475 49.1548 47.9525C49.8598 51.5225 50.3998 55.1375 51.0298 58.7825H44.3248ZM10.8748 26.8175C11.9698 26.9375 13.0948 26.9075 14.2048 26.8925C14.6848 26.8925 14.9248 27.0125 15.0748 27.4925C15.5098 28.7975 16.1998 29.9825 17.1598 30.9725C18.5098 32.3825 19.8898 33.7625 21.2848 35.1425C22.1398 35.9975 23.1748 36.5075 24.4048 36.5525C25.3348 36.5825 26.2798 36.5975 27.2098 36.5975C31.1848 36.5975 31.3048 36.5825 34.0798 33.7325C34.7548 33.0275 35.4148 32.6675 36.4498 32.6975C38.5198 32.7575 40.1398 31.8275 40.9948 29.9075C41.3848 29.0225 41.4448 28.0025 41.6848 26.9075C41.8348 26.9075 42.0898 26.9075 42.3598 26.9075C45.1048 26.8475 47.0998 24.9875 47.2498 22.2425C47.3248 20.7425 47.2798 19.2425 47.2348 17.7425C47.2198 16.8125 46.8448 16.0025 46.2748 15.2675C45.1948 13.8725 43.7398 13.3175 42.0148 13.3625C41.5048 13.3775 41.2648 13.2725 41.1748 12.7025C40.7998 10.4075 39.8398 8.36754 38.4448 6.49254C35.0098 1.78254 28.4848 -0.407459 22.9198 1.37754C17.3848 3.16254 13.9798 6.95754 12.7948 12.6575C12.6748 13.2275 12.4648 13.4225 11.9248 13.3325C11.8498 13.3175 11.7748 13.3325 11.6848 13.3325C8.78978 13.4375 6.82478 15.3125 6.70478 18.1625C6.64478 19.5725 6.65978 20.9825 6.73479 22.3775C6.85478 24.7025 8.56479 26.5475 10.8748 26.8175ZM43.4998 15.5825C44.5048 15.8225 45.3148 16.8275 45.3598 17.9975C45.4048 19.4225 45.4198 20.8475 45.3598 22.2725C45.2998 23.4425 44.6548 24.2525 43.4998 24.7625V15.5825ZM34.4848 30.5975C34.3348 30.7325 34.0648 30.7625 33.8548 30.7625C30.8248 30.7775 27.7948 30.7625 24.7798 30.7625H24.1198V32.7125H32.3248C31.3498 33.9425 30.3298 34.7525 28.7548 34.6625C27.4648 34.5875 26.1748 34.6325 24.8848 34.6475C23.9998 34.6475 23.2348 34.3475 22.6198 33.7325C21.3448 32.4725 20.0698 31.1975 18.8098 29.9225C17.3398 28.4075 16.4848 26.5925 16.3948 24.4775C16.3198 22.7525 16.3798 21.0125 16.3798 19.1675C16.6048 19.1675 16.8298 19.1675 17.0398 19.1675C18.9298 19.0925 20.8348 19.1375 22.7098 18.9275C25.7248 18.5975 28.4098 17.3675 30.8098 15.5225C31.0348 15.3425 31.2748 15.1625 31.4998 14.9825C31.5298 14.9675 31.5748 14.9525 31.6498 14.9375C32.9698 17.2475 34.9348 18.6725 37.6648 19.1075C37.4848 21.7175 38.0248 24.3575 37.0798 26.8925C36.5548 28.3625 35.6248 29.5475 34.4848 30.5975ZM39.6148 15.3425H41.4748V24.9275H39.6148V15.3425ZM37.3498 30.6125C37.9048 29.4875 38.4748 28.3025 39.0598 27.1325C39.1198 27.0125 39.3148 26.9525 39.4798 26.8325C39.7948 28.9175 38.7598 30.5675 37.3498 30.6125ZM26.8948 2.71254C32.9698 2.63754 38.6548 7.40754 39.3598 13.3325H37.6648V17.0825C34.4998 16.6625 33.4198 14.1125 32.0548 11.8325C31.2898 12.5225 30.5998 13.2125 29.8498 13.8125C26.9698 16.1075 23.6698 17.2325 19.9798 17.2175C18.7948 17.2175 17.6098 17.2175 16.3648 17.2175V13.3325H14.6398C15.2998 8.06754 20.1448 2.80254 26.8948 2.71254ZM12.5098 15.3425H14.3698V24.9275H12.5098V15.3425ZM8.60978 18.1925C8.62478 16.9325 9.35979 15.9275 10.5298 15.5225V24.7025C9.92978 24.5675 9.47978 24.2375 9.22478 23.7725C8.93979 23.2325 8.66978 22.6325 8.63978 22.0475C8.54978 20.7725 8.59478 19.4825 8.60978 18.1925ZM29.9248 56.8625H31.7698V54.9875H29.9248V56.8625ZM31.7698 48.2225H29.9398V50.0825H31.7698V48.2225Z" fill="#494949"/>
</svg>
