<svg width="52" height="52" viewBox="0 0 52 52" fill="none" xmlns="http://www.w3.org/2000/svg">
<g clip-path="url(#clip0_417_86)">
<path d="M51.9218 24.2968C51.7788 23.1788 51.6878 22.0348 51.4668 20.9298C51.2458 19.8248 50.9338 18.7328 50.6088 17.6538C50.3488 16.8088 49.5168 16.3928 48.7238 16.6398C47.9048 16.8868 47.4888 17.6668 47.6968 18.5248C47.7488 18.7588 47.8268 18.9798 47.8918 19.2008C49.1008 23.1658 49.2438 27.1698 48.3338 31.2258C46.0848 41.1968 36.9978 48.6588 26.7798 48.9448C22.2688 49.0618 18.0048 48.0868 14.2088 45.6558C6.20083 40.5598 2.43083 33.1888 3.19783 23.7248C3.69183 17.6408 6.42183 12.5318 11.1018 8.60582C17.5238 3.23682 24.8298 1.80682 32.8768 4.13382C34.6838 4.66682 36.3738 5.48582 37.9988 6.44782C38.8698 6.95482 39.7668 6.73382 40.2088 5.96682C40.6638 5.17382 40.3778 4.30282 39.4938 3.78282C39.1558 3.58782 38.8178 3.39282 38.4798 3.21082C32.8508 0.181822 26.8968 -0.741178 20.6568 0.571822C14.3648 1.88482 9.24283 5.16082 5.34283 10.2568C1.19583 15.6908 -0.520168 21.8658 0.142832 28.6518C0.675832 34.1638 2.83383 39.0258 6.51283 43.1858C10.5298 47.7228 15.5478 50.5438 21.5278 51.6098C22.5028 51.7788 23.5038 51.8828 24.4788 52.0128H27.5208C28.5088 51.8828 29.4968 51.7788 30.4718 51.6098C36.3738 50.5698 41.3398 47.7878 45.3438 43.3418C49.1138 39.1558 51.2458 34.2158 51.8698 28.6258C51.9088 28.2618 51.9478 27.8978 51.9998 27.5338V24.7908C51.9738 24.6218 51.9478 24.4528 51.9218 24.2968ZM25.8698 31.0698C25.7528 30.9788 25.6748 30.9138 25.6098 30.8358C22.1258 27.5728 18.6548 24.2968 15.1708 21.0338C15.0018 20.8778 14.8328 20.6958 14.6378 20.5658C14.0918 20.2018 13.5198 20.1758 12.9608 20.5138C12.4018 20.8518 12.1158 21.3978 12.2848 22.0218C12.4018 22.4378 12.6618 22.8538 12.9738 23.1528C16.7568 26.7408 20.5918 30.2768 24.3488 33.8908C25.6228 35.1128 26.4808 35.1518 27.6768 33.6958C32.8248 27.5208 38.0248 21.3848 43.1988 15.2358C44.8498 13.2858 46.4878 11.3228 48.1388 9.37282C48.5288 8.90482 48.7628 8.39782 48.5808 7.78682C48.4118 7.22782 48.0348 6.85082 47.4628 6.72082C46.7608 6.56482 46.2278 6.87682 45.7858 7.40982C39.9488 14.3518 34.0988 21.2938 28.2618 28.2228C27.4688 29.1718 26.6758 30.1208 25.8698 31.0698Z" fill="#494949"/>
</g>
<defs>
<clipPath id="clip0_417_86">
<rect width="52" height="52" fill="white"/>
</clipPath>
</defs>
</svg>
